<svg xmlns="http://www.w3.org/2000/svg" xmlns:xlink="http://www.w3.org/1999/xlink" viewBox="0 0 241.56 241.56">
  <defs>
    <linearGradient id="a">
      <stop offset="0" stop-color="#cfcfcf"/>
      <stop offset="1" stop-color="#eaeaea"/>
    </linearGradient>
    <linearGradient gradientTransform="translate(11.56 -1.6)" gradientUnits="userSpaceOnUse" y2="195.8" x2="167.49" y1="80.16" x1="68.19" id="b" xlink:href="#a"/>
  </defs>
  <path d="m125.64 22.84-.16.17-96.23 103.3.31-.32c-13.36 13.4-17.33 31.93-15.49 48.76 1.85 16.83 9.07 32.83 21.2 43.94 23.43 21.47 55.4 17.9 79.43 10.5 42.8-13.83 74.14-27.47 103.66-38.46a13.23 13.23 0 1 0-9.22-24.8c-32.47 12.56-84.71 32.6-102.21 37.98-20.1 6.18-40.54 7.42-53.8-4.73-6.22-5.7-11.57-16.53-12.75-27.31-1.19-10.78 1.38-20.64 7.91-27.2l.16-.15 95.97-103.03c11.01-10.73 23.18-11.29 34.88-1.09 11.7 10.2 9.97 25.17 4.66 30.48-6 6-98.74 102.35-98.74 102.35-1.44 1.44-7.34 4.5-11.93-.3-4.6-4.79-.55-8.27 1.4-10.22l96.56-96.77a13.23 13.23 0 1 0-18.73-18.69l-96.56 96.77c-6.17 6.18-8.85 13.85-9.54 21.63-.68 7.77.62 16.34 6.8 23.49 6 6.93 14.2 10.89 23.27 11.95 9.06 1.07 19.7-1.4 27.47-9.18l.1-.09L204.25 87.4l-.18.18c15.75-15.78 16.28-46.29-7.3-67.04-22.66-18.37-50.99-17.43-71.14 2.3Z" style="line-height:normal;font-variant-ligatures:normal;font-variant-position:normal;font-variant-caps:normal;font-variant-numeric:normal;font-variant-alternates:normal;font-variant-east-asian:normal;font-feature-settings:normal;font-variation-settings:normal;text-indent:0;text-align:start;text-decoration-line:none;text-decoration-style:solid;text-decoration-color:#000;text-transform:none;text-orientation:mixed;white-space:normal;shape-padding:0;shape-margin:0;inline-size:0;isolation:auto;mix-blend-mode:normal;solid-color:#000;solid-opacity:1" color="#000" font-weight="400" font-family="sans-serif" overflow="visible" fill="url(#b)" fill-rule="evenodd" stroke="#0b0b0b" stroke-width="3.97" stroke-linecap="round"/>
</svg>
