<?xml version="1.0" encoding="UTF-8" standalone="no"?>
<svg
   xmlns:dc="http://purl.org/dc/elements/1.1/"
   xmlns:cc="http://creativecommons.org/ns#"
   xmlns:rdf="http://www.w3.org/1999/02/22-rdf-syntax-ns#"
   xmlns:svg="http://www.w3.org/2000/svg"
   xmlns="http://www.w3.org/2000/svg"
   xmlns:sodipodi="http://sodipodi.sourceforge.net/DTD/sodipodi-0.dtd"
   xmlns:inkscape="http://www.inkscape.org/namespaces/inkscape"
   inkscape:version="1.0 (4035a4fb49, 2020-05-01)"
   sodipodi:docname="clippy.svg"
   id="svg34"
   version="1.1"
   viewBox="0 0 26.499341 57.922228"
   height="751.23767"
   width="343.69022">
  <metadata
     id="metadata40">
    <rdf:RDF>
      <cc:Work
         rdf:about="">
        <dc:format>image/svg+xml</dc:format>
        <dc:type
           rdf:resource="http://purl.org/dc/dcmitype/StillImage" />
        <dc:title></dc:title>
      </cc:Work>
    </rdf:RDF>
  </metadata>
  <defs
     id="defs38" />
  <sodipodi:namedview
     fit-margin-bottom="0"
     fit-margin-right="0"
     fit-margin-left="0"
     fit-margin-top="0"
     inkscape:current-layer="g32"
     inkscape:window-maximized="1"
     inkscape:window-y="-8"
     inkscape:window-x="1912"
     inkscape:cy="366.88542"
     inkscape:cx="534.236"
     inkscape:zoom="0.93624189"
     showgrid="false"
     id="namedview36"
     inkscape:window-height="1017"
     inkscape:window-width="1920"
     inkscape:pageshadow="2"
     inkscape:pageopacity="0"
     guidetolerance="10"
     gridtolerance="10"
     objecttolerance="10"
     borderopacity="1"
     bordercolor="#666666"
     pagecolor="#ffffff" />
  <g
     transform="translate(-146.64472,-66.938171)"
     id="g32"
     clip-rule="evenodd"
     fill-rule="evenodd">
    <path
       style="fill:#c0c0c0;fill-opacity:1;stroke:#000000;stroke-width:0.616819;stroke-miterlimit:4;stroke-dasharray:none;stroke-opacity:1"
       sodipodi:nodetypes="cccccccccccssccccccccccccsscccccssssscccccssccc"
       id="path8"
       fill="#666575"
       d="m 158.977,72.081963 c 0.76161,-0.415251 1.61657,-0.629335 2.484,-0.622 0.934,-0.035 1.727,0.207 2.383,0.622 0.69205,0.410585 1.18976,1.082376 1.381,1.864 0.381,1.588 0.449,3.453 0.209,5.594 -0.623,4.897941 -1.072,7.265543 -1.244,10.062543 -0.275,3.557 0.30423,6.896494 -0.14477,16.806494 -0.035,1.141 -0.381,2.072 -0.932,2.764 -0.588,0.656 -2.13423,1 -2.89423,1 -0.795,0.035 -1.416,-0.207 -1.934,-0.76 -0.553,-0.586 -0.863,-1.449 -0.828,-2.59 0,-1.91447 0.31162,-9.289264 0.43374,-12.105783 0.0298,-0.686349 -0.25443,-1.20118 -0.56855,-1.410422 -0.7149,-0.4762 -1.28857,-0.4131 -1.72828,-0.3267 -0.95757,0.243196 -1.42229,1.380942 -1.39884,2.065256 0.1546,3.044457 0.54656,10.873839 0.60096,13.054649 0.035,1.797 0.623,3.213 1.797,4.213 1.07,0.898 2.383,1.312 3.867,1.244 1.484,-0.104 3.68723,-0.621 4.75723,-1.588 1.174,-1.105 1.795,-2.557 1.865,-4.316 0.207,-6.182 -0.11503,-12.051001 0.60997,-17.714001 l 1.6758,-10.053037 c 0.449,-5.317 -0.553,-8.978 -3.039,-10.911 -1.553,-1.174 -3.35,-1.761 -5.422,-1.727 -2.174,0.035 -4.004,0.726 -5.488,2.072 -1.797,1.623 -2.78762,3.92689 -3.45141,6.768 -0.54397,2.328284 -1.77213,10.907755 -2.04255,16.394877 -0.32689,6.633063 -0.33966,14.103411 0.76296,23.147161 0.068,3.107 1.104,5.455 3.211,7.078 1.863,1.381 4.143,2.037 6.836,1.795 2.693,-0.207 4.973,-1.139 6.836,-2.797 2.107,-1.762 3.143,-4.006 3.178,-6.629 0,0 0.21829,-13.35283 0.32752,-20.029237 0.006,-0.376736 -0.0274,-0.769338 -0.1357,-1.130209 -0.18157,-0.604932 -0.63562,-1.238994 -1.20649,-1.406762 -0.48747,-0.143262 -0.85162,-0.06784 -1.2157,0.286557 -0.22564,0.219638 -0.47054,0.783932 -0.47451,1.098796 -0.0876,6.945285 -0.26312,20.835855 -0.26312,20.835855 -0.139,1.863 -0.934,3.383 -2.314,4.453 -1.242,0.967 -2.729,1.486 -4.523,1.52 -1.727,0.035 -3.211,-0.379 -4.523,-1.312 -1.416,-0.932 -2.174,-2.348 -2.312,-4.107 -0.311,-3.488 -0.99467,-9.93245 -0.73343,-19.406001 0.15092,-5.473007 1.0878,-11.43744 2.32402,-17.408037 0.40502,-1.956122 0.86141,-3.418 1.41341,-4.558 0.377,-0.762 1,-1.383 1.864,-1.832 z" />
    <path
       sodipodi:nodetypes="csssccssscccacccscsscc"
       style="fill:#ffffff;fill-opacity:1"
       id="path12"
       fill="#cccde7"
       d="m 160.8067,121.15618 c 0,0 -1.74836,-0.0547 -3.33441,-0.73019 -1.05381,-0.44884 -2.07111,-1.27957 -2.63512,-1.92923 -0.3708,-0.42709 -0.74025,-1.10463 -0.9491,-1.83067 -0.36478,-1.26814 -0.41872,-2.62453 -0.41872,-2.62453 l -0.54642,-0.0135 c 0,0 -0.25981,1.20864 0.24817,2.52435 0.32218,0.83447 0.84368,1.86898 1.30705,2.35542 0.64311,0.67513 1.73385,1.62303 2.868,2.13204 1.86945,0.83902 3.50999,0.70089 3.50999,0.70089 z m -0.055,-52.668859 c 1.83023,0.166909 2.51506,0.146548 3.61687,0.686883 1.18652,0.581878 2.20955,1.0727 2.96955,2.6267 0.656,1.208 1.09629,2.991264 1.09629,4.579264 -0.033,0.311 0.035,0.483 0.277,0.518 0.172,0.035 0.275,-0.172 0.275,-0.622 0,-1.83 -0.43026,-3.525266 -1.29326,-4.975266 -0.898,-1.484 -2.0823,-2.317684 -3.37759,-2.85174 -1.01631,-0.41903 -1.51466,-0.569483 -3.40554,-0.705069 -0.34137,-0.02448 -0.54728,0.174651 -0.57333,0.42151 -0.0192,0.296631 0.11824,0.301157 0.41501,0.321718 z" />
    <path
       style="fill:#ffffff;stroke:#000000;stroke-width:0.616819;stroke-miterlimit:4;stroke-dasharray:none;stroke-opacity:1"
       id="path16"
       fill="#d0d1d3"
       d="m 149.50702,83.377368 c -1.35809,0.259319 -2.15611,0.759886 -2.45984,1.472939 -0.27452,0.75877 0.0373,1.553758 0.96742,2.410431 0.9594,0.901793 2.20067,1.527709 3.7903,1.885991 1.58962,0.358282 3.08808,0.347997 4.5309,-0.02492 1.37172,-0.361768 2.20991,-0.898814 2.48442,-1.657584 0.26904,-0.717671 -0.0483,-1.471561 -1.02678,-2.229808 -0.94381,-0.753629 -2.22326,-1.3428 -3.85036,-1.684853 -1.62531,-0.363032 -3.11544,-0.415286 -4.43606,-0.172196 z" />
    <path
       style="stroke-width:0.836976"
       id="path20"
       d="m 149.68248,84.308127 c -0.58897,-0.100654 -1.18859,-0.113046 -1.69985,0.04537 -0.51125,0.158413 -0.84693,0.429864 -1.00742,0.792703 -0.12295,0.367182 -0.0218,0.720337 0.31016,1.057749 0.32899,0.359919 0.82407,0.584864 1.44458,0.734874 0.58598,0.123156 1.15113,0.108059 1.69985,-0.04537 0.54542,-0.15321 0.84692,-0.429864 1.00442,-0.770193 0.12003,-0.345317 0.0166,-0.698113 -0.30717,-1.080259 -0.33189,-0.338053 -0.8262,-0.585149 -1.44457,-0.734873 z" />
    <path
       style="fill:#ffffff;stroke:#000000;stroke-width:0.616819;stroke-miterlimit:4;stroke-dasharray:none;stroke-opacity:1"
       id="path24"
       fill="#d0d1d3"
       d="m 167.85961,84.983046 c -1.62432,-0.3629 -3.11821,-0.394438 -4.4763,-0.13512 -1.32332,0.263342 -2.11856,0.743061 -2.39236,1.481316 -0.30453,0.734164 0.005,1.549404 0.93471,2.406076 0.92471,0.897176 2.23814,1.51148 3.79585,1.844297 1.58962,0.358282 3.08808,0.347996 4.53081,-0.02432 1.36903,-0.341515 2.20722,-0.878562 2.47896,-1.616485 0.30651,-0.7339 -0.0483,-1.471562 -0.98661,-2.266289 -0.94374,-0.754225 -2.23072,-1.301966 -3.88506,-1.689471 z" />
    <path
       style="stroke-width:0.848608"
       sodipodi:nodetypes="ccccccccc"
       id="path28"
       d="m 165.45517,87.495779 c 0.12474,-0.372937 0.0579,-0.725581 -0.27562,-1.090502 -0.33434,-0.342464 -0.8356,-0.592342 -1.46249,-0.744799 -0.6321,-0.129923 -1.20511,-0.114618 -1.72346,0.046 -0.55517,0.155052 -0.93458,0.425075 -1.05941,0.798665 -0.12781,0.34957 -0.0147,0.735595 0.31439,1.0731 0.33355,0.364921 0.83266,0.614511 1.42373,0.762202 0.60474,0.129629 1.23604,0.114837 1.75927,-0.04123 0.55525,-0.155703 0.89668,-0.430783 1.02359,-0.803432 z" />
    <path
       sodipodi:nodetypes="ccsccccc"
       d="m 149.35282,83.377368 c -1.79483,0.375784 -2.24741,1.414707 -2.24741,1.414707 0,0 2.71001,-0.489477 5.80591,0.132804 3.59027,0.72165 6.0631,2.230936 6.0631,2.230936 0,0 0.0887,-0.959338 -1.18098,-1.921398 -0.94381,-0.753629 -2.37746,-1.497005 -4.00456,-1.839058 -1.62531,-0.363032 -3.11544,-0.261081 -4.43606,-0.01799 z"
       fill="#d0d1d3"
       id="path865"
       style="fill:#c0c0c0;fill-opacity:1;stroke:#000000;stroke-width:0.30841;stroke-miterlimit:4;stroke-dasharray:none;stroke-opacity:1" />
    <path
       style="fill:#c0c0c0;fill-opacity:1;stroke:#000000;stroke-width:0.30841;stroke-miterlimit:4;stroke-dasharray:none;stroke-opacity:1"
       id="path867"
       fill="#d0d1d3"
       d="m 163.27037,84.774946 c -1.79483,0.375784 -2.24741,1.414707 -2.24741,1.414707 0,0 2.71001,-0.489477 5.80591,0.132804 3.59027,0.72165 6.0631,2.230936 6.0631,2.230936 0,0 0.0887,-0.959338 -1.18098,-1.921398 -0.94381,-0.753629 -2.37746,-1.497005 -4.00456,-1.839058 -1.62531,-0.363032 -3.11544,-0.261081 -4.43606,-0.01799 z"
       sodipodi:nodetypes="ccsccccc" />
    <path
       d="m 160.67963,110.67984 c 0,0 -0.72778,0.0137 -1.0697,-0.0919 -0.60976,-0.18846 -1.23094,-0.47542 -1.66747,-0.941 -0.40086,-0.42753 -0.61118,-1.01777 -0.76381,-1.58361 -0.16935,-0.62788 -0.15107,-1.94511 -0.15107,-1.94511 l -0.54642,-0.0135 c 0,0 -0.0302,1.33433 0.14523,1.96846 0.19333,0.69899 0.46708,1.42861 0.97764,1.94366 0.54487,0.54966 1.32423,0.83743 2.06506,1.06145 0.35357,0.10692 1.10116,0.12442 1.10116,0.12442 z"
       fill="#cccde7"
       id="path12-3"
       style="fill:#ffffff;fill-opacity:1;stroke-width:1"
       sodipodi:nodetypes="caaaccaaacc" />
  </g>
</svg>
